<?xml version="1.0" encoding="utf-8"?>
<!-- Generator: Adobe Illustrator 12.0.0, SVG Export Plug-In  -->
<!DOCTYPE svg PUBLIC "-//W3C//DTD SVG 1.1//EN" "http://www.w3.org/Graphics/SVG/1.1/DTD/svg11.dtd" [
	<!ENTITY ns_flows "http://ns.adobe.com/Flows/1.0/">
	<!ENTITY ns_svg "http://www.w3.org/2000/svg">
	<!ENTITY ns_xlink "http://www.w3.org/1999/xlink">
]>
<svg  version="1.1" xmlns="&ns_svg;" xmlns:xlink="&ns_xlink;" xmlns:a="http://ns.adobe.com/AdobeSVGViewerExtensions/3.0/"
	 width="231" height="235" viewBox="-0.777 -0.937 231 235" enable-background="new -0.777 -0.937 231 235" xml:space="preserve">
<defs>
</defs>
<g>
	<g>
		<ellipse fill="none" cx="119.555" cy="125.924" rx="107.667" ry="105.667"/>
		<g>
			<path fill="#DB9A8F" d="M226.841,134.459c-1.375-0.118-2.407-1.289-2.304-2.615c0.098-1.326,1.197-2.374,2.591-2.332
				c1.366,0.041,2.501,1.216,2.399,2.62C229.42,133.536,228.217,134.578,226.841,134.459z"/>
			<path fill="#DB9A8F" d="M225.853,142.719c-1.347-0.226-2.272-1.473-2.121-2.795c0.17-1.319,1.422-2.266,2.794-2.115
				c1.373,0.151,2.339,1.404,2.158,2.8C228.521,142.008,227.229,142.949,225.853,142.719z"/>
			<path fill="#DB9A8F" d="M224.176,150.867c-1.338-0.336-2.177-1.658-1.873-2.952c0.33-1.29,1.584-2.147,2.947-1.885
				c1.349,0.258,2.28,1.6,1.934,2.966C226.862,150.366,225.515,151.204,224.176,150.867z"/>
			<path fill="#DB9A8F" d="M221.86,158.856c-1.326-0.449-1.973-1.808-1.623-3.091c0.369-1.277,1.748-2.014,3.077-1.646
				c1.331,0.368,2.093,1.763,1.701,3.115C224.642,158.593,223.149,159.293,221.86,158.856z"/>
		</g>
		<g>
			<path fill="#DB9A8F" d="M218.842,166.85c-1.266-0.549-1.892-1.995-1.396-3.229s1.949-1.847,3.243-1.371
				c1.296,0.478,1.922,1.923,1.397,3.229C221.562,166.786,220.109,167.399,218.842,166.85z"/>
			<path fill="#DB9A8F" d="M215.24,174.349c-1.218-0.648-1.708-2.13-1.091-3.309c0.597-1.188,2.034-1.712,3.296-1.129
				c1.244,0.575,1.813,2.095,1.181,3.353C217.975,174.511,216.459,174.997,215.24,174.349z"/>
			<path fill="#DB9A8F" d="M211.085,181.555c-1.162-0.742-1.502-2.239-0.849-3.398c0.672-1.148,2.193-1.53,3.396-0.853
				c1.204,0.677,1.603,2.21,0.891,3.424C213.831,181.954,212.25,182.299,211.085,181.555z"/>
			<path fill="#DB9A8F" d="M206.367,188.407c-1.101-0.832-1.362-2.38-0.581-3.457c0.796-1.066,2.324-1.34,3.459-0.577
				c1.156,0.777,1.453,2.35,0.612,3.478C209.032,188.99,207.469,189.239,206.367,188.407z"/>
		</g>
		<g>
			<path fill="#DB9A8F" d="M200.968,195.027c-1.031-0.917-1.154-2.47-0.272-3.467c0.834-1.037,2.382-1.184,3.462-0.324
				c1.08,0.859,1.245,2.448,0.362,3.542C203.59,195.834,202,195.945,200.968,195.027z"/>
			<path fill="#DB9A8F" d="M195.239,201.06c-0.947-0.984-0.952-2.545-0.034-3.51c0.927-0.955,2.498-0.965,3.508-0.024
				c1.01,0.941,1.035,2.522,0.055,3.531C197.798,202.075,196.207,202.065,195.239,201.06z"/>
			<path fill="#DB9A8F" d="M189.042,206.61c-0.877-1.065-0.767-2.628,0.248-3.49c1.03-0.845,2.556-0.78,3.493,0.239
				c0.931,1.013,0.875,2.638-0.211,3.532C191.5,207.802,189.919,207.676,189.042,206.61z"/>
			<path fill="#DB9A8F" d="M182.439,211.669c-0.8-1.14-0.533-2.641,0.525-3.448c1.053-0.813,2.6-0.592,3.452,0.493
				c0.853,1.086,0.642,2.662-0.472,3.521C184.827,213.086,183.225,212.789,182.439,211.669z"/>
		</g>
		<g>
			<path fill="#DB9A8F" d="M175.289,216.346c-0.695-1.18-0.354-2.726,0.773-3.433c1.127-0.709,2.661-0.351,3.424,0.798
				c0.765,1.15,0.42,2.689-0.77,3.438C177.525,217.896,175.995,217.545,175.289,216.346z"/>
			<path fill="#DB9A8F" d="M167.968,220.298c-0.607-1.239-0.135-2.729,1.055-3.327c1.194-0.589,2.654-0.19,3.335,1.028
				c0.666,1.191,0.245,2.775-1.016,3.399C170.086,222.032,168.575,221.539,167.968,220.298z"/>
			<path fill="#DB9A8F" d="M160.379,223.706c-0.512-1.288,0.093-2.688,1.301-3.25c1.217-0.541,2.673,0.039,3.251,1.291
				c0.579,1.253,0.007,2.732-1.279,3.302C162.376,225.641,160.888,224.984,160.379,223.706z"/>
			<path fill="#DB9A8F" d="M152.549,226.515c-0.41-1.317,0.282-2.727,1.545-3.146c1.27-0.402,2.67,0.271,3.146,1.551
				c0.485,1.307-0.192,2.754-1.533,3.18C154.374,228.543,152.959,227.833,152.549,226.515z"/>
		</g>
		<g>
			<path fill="#DB9A8F" d="M144.304,228.752c-0.307-1.351,0.503-2.663,1.796-2.981c1.282-0.358,2.628,0.429,3.005,1.756
				c0.377,1.328-0.415,2.711-1.769,3.087C145.971,230.952,144.608,230.094,144.304,228.752z"/>
			<path fill="#DB9A8F" d="M136.137,230.34c-0.201-1.365,0.698-2.66,2.01-2.89c1.312-0.229,2.598,0.682,2.872,2.034
				c0.274,1.354-0.625,2.648-2.01,2.891C137.625,232.618,136.339,231.707,136.137,230.34z"/>
			<path fill="#DB9A8F" d="M127.868,231.246c-0.098-1.376,0.9-2.573,2.229-2.672c1.324-0.144,2.532,0.817,2.703,2.192
				c0.17,1.365-0.82,2.633-2.218,2.784C129.181,233.655,127.965,232.624,127.868,231.246z"/>
			<path fill="#DB9A8F" d="M119.555,231.59c0.006-1.38,1.09-2.527,2.422-2.56c1.332-0.033,2.466,1.059,2.533,2.437
				c0.067,1.379-1.018,2.526-2.422,2.561C120.684,234.063,119.55,232.971,119.555,231.59z"/>
		</g>
		<g>
			<path fill="#DB9A8F" d="M111.019,231.229c0.112-1.375,1.279-2.411,2.607-2.311c1.329,0.084,2.379,1.192,2.34,2.583
				c-0.038,1.369-1.21,2.497-2.612,2.409C111.953,233.806,110.907,232.605,111.019,231.229z"/>
			<path fill="#DB9A8F" d="M102.751,230.301c0.213-1.346,1.458-2.31,2.78-2.151c1.322,0.165,2.277,1.412,2.135,2.785
				c-0.143,1.374-1.389,2.346-2.783,2.172C103.488,232.938,102.533,231.682,102.751,230.301z"/>
			<path fill="#DB9A8F" d="M94.587,228.703c0.319-1.343,1.63-2.193,2.929-1.899c1.295,0.313,2.171,1.54,1.921,2.917
				c-0.243,1.34-1.577,2.305-2.945,1.977C95.121,231.387,94.268,230.046,94.587,228.703z"/>
			<path fill="#DB9A8F" d="M86.562,226.515c0.42-1.314,1.781-2.022,3.07-1.686c1.283,0.357,2.039,1.73,1.689,3.065
				c-0.35,1.336-1.731,2.113-3.085,1.735C86.876,229.272,86.141,227.831,86.562,226.515z"/>
		</g>
		<g>
			<path fill="#DB9A8F" d="M78.521,223.625c0.523-1.277,1.954-1.923,3.196-1.443c1.236,0.495,1.886,1.912,1.437,3.202
				c-0.458,1.317-1.901,1.995-3.207,1.474C78.636,226.35,77.998,224.902,78.521,223.625z"/>
			<path fill="#DB9A8F" d="M70.941,220.197c0.623-1.239,2.081-1.734,3.283-1.163c1.217,0.539,1.756,2.002,1.204,3.267
				c-0.553,1.266-2.042,1.829-3.328,1.258C70.831,222.956,70.324,221.425,70.941,220.197z"/>
			<path fill="#DB9A8F" d="M63.629,216.231c0.707-1.172,2.229-1.607,3.388-0.951c1.16,0.654,1.574,2.174,0.926,3.392
				c-0.648,1.219-2.167,1.647-3.392,0.957C63.328,218.935,62.91,217.423,63.629,216.231z"/>
			<path fill="#DB9A8F" d="M56.671,211.669c0.802-1.123,2.337-1.417,3.429-0.654c1.085,0.771,1.429,2.245,0.68,3.424
				c-0.731,1.151-2.326,1.535-3.474,0.722C56.154,214.356,55.869,212.793,56.671,211.669z"/>
		</g>
		<g>
			<path fill="#DB9A8F" d="M49.897,206.464c0.901-1.072,2.403-1.179,3.472-0.385c1.055,0.813,1.236,2.366,0.407,3.469
				c-0.831,1.103-2.406,1.302-3.519,0.443C49.128,209.151,49.021,207.506,49.897,206.464z"/>
			<path fill="#DB9A8F" d="M43.707,200.906c0.967-0.984,2.54-1.046,3.512-0.136c0.974,0.908,1.014,2.493,0.114,3.515
				c-0.925,1.05-2.491,1.104-3.52,0.145C42.787,203.469,42.739,201.891,43.707,200.906z"/>
			<path fill="#DB9A8F" d="M37.994,194.858c1.041-0.906,2.599-0.832,3.479,0.166c0.905,0.976,0.871,2.514-0.124,3.481
				c-0.985,0.958-2.599,0.936-3.555-0.096C36.863,197.355,36.953,195.766,37.994,194.858z"/>
			<path fill="#DB9A8F" d="M32.744,188.407c1.104-0.819,2.63-0.609,3.479,0.417c0.832,1.039,0.645,2.596-0.417,3.478
				c-1.062,0.883-2.636,0.708-3.515-0.39C31.396,190.827,31.63,189.233,32.744,188.407z"/>
		</g>
		<g>
			<path fill="#DB9A8F" d="M27.902,181.367c1.171-0.73,2.711-0.419,3.438,0.694c0.716,1.122,0.413,2.653-0.704,3.438
				c-1.142,0.802-2.706,0.508-3.464-0.677C26.403,183.645,26.73,182.098,27.902,181.367z"/>
			<path fill="#DB9A8F" d="M23.766,174.149c1.227-0.635,2.715-0.192,3.335,0.984c0.673,1.147,0.254,2.647-0.933,3.35
				c-1.188,0.703-2.729,0.289-3.439-0.926C22.072,176.313,22.542,174.784,23.766,174.149z"/>
			<path fill="#DB9A8F" d="M20.184,166.641c1.257-0.529,2.729,0.021,3.292,1.226c0.557,1.208,0.001,2.679-1.238,3.285
				c-1.241,0.606-2.724,0.062-3.313-1.217C18.33,168.659,18.896,167.184,20.184,166.641z"/>
			<path fill="#DB9A8F" d="M17.25,158.856c1.311-0.431,2.726,0.238,3.158,1.495c0.408,1.266-0.181,2.657-1.479,3.167
				c-1.271,0.5-2.788-0.131-3.223-1.471C15.248,160.717,15.939,159.288,17.25,158.856z"/>
		</g>
		<g>
			<path fill="#DB9A8F" d="M14.883,150.648c1.358-0.326,2.64,0.477,3.017,1.751c0.37,1.277-0.402,2.635-1.724,3.032
				c-1.322,0.397-2.712-0.376-3.103-1.729C12.677,152.352,13.557,150.966,14.883,150.648z"/>
			<path fill="#DB9A8F" d="M13.217,142.498c1.363-0.213,2.663,0.675,2.901,1.983c0.242,1.308-0.672,2.605-2.005,2.892
				c-1.366,0.293-2.654-0.597-2.91-1.981C10.951,144.006,11.853,142.71,13.217,142.498z"/>
			<path fill="#DB9A8F" d="M12.252,134.235c1.376-0.103,2.575,0.888,2.677,2.214c0.169,1.319-0.8,2.535-2.168,2.715
				c-1.369,0.18-2.626-0.805-2.804-2.202C9.847,135.56,10.875,134.339,12.252,134.235z"/>
			<path fill="#DB9A8F" d="M11.889,125.924c1.38,0.006,2.528,1.089,2.562,2.418c0.035,1.33-1.056,2.465-2.435,2.536
				c-1.379,0.071-2.527-1.012-2.563-2.418C9.417,127.054,10.508,125.918,11.889,125.924z"/>
		</g>
		<g>
			<path fill="#DB9A8F" d="M12.269,117.389c1.375,0.118,2.407,1.289,2.304,2.614c-0.098,1.327-1.197,2.374-2.591,2.332
				c-1.366-0.041-2.501-1.216-2.399-2.62C9.69,118.312,10.894,117.271,12.269,117.389z"/>
			<path fill="#DB9A8F" d="M13.258,109.129c1.347,0.226,2.272,1.473,2.121,2.795c-0.171,1.319-1.422,2.266-2.794,2.115
				c-1.373-0.151-2.339-1.404-2.158-2.8C10.589,109.839,11.882,108.899,13.258,109.129z"/>
			<path fill="#DB9A8F" d="M14.935,100.98c1.338,0.336,2.177,1.659,1.873,2.953c-0.33,1.29-1.584,2.147-2.947,1.885
				c-1.348-0.259-2.28-1.6-1.934-2.966C12.248,101.482,13.595,100.644,14.935,100.98z"/>
			<path fill="#DB9A8F" d="M17.25,92.992c1.326,0.449,1.973,1.808,1.623,3.091c-0.369,1.277-1.748,2.014-3.078,1.646
				c-1.331-0.368-2.092-1.763-1.701-3.115C14.469,93.255,15.961,92.555,17.25,92.992z"/>
		</g>
		<g>
			<path fill="#DB9A8F" d="M20.268,84.999c1.266,0.549,1.892,1.995,1.396,3.229s-1.949,1.847-3.244,1.371
				c-1.296-0.478-1.921-1.923-1.397-3.229C17.548,85.063,19.001,84.449,20.268,84.999z"/>
			<path fill="#DB9A8F" d="M23.871,77.5c1.218,0.648,1.708,2.129,1.091,3.309c-0.597,1.188-2.034,1.712-3.296,1.129
				c-1.244-0.575-1.813-2.095-1.182-3.353C21.135,77.336,22.651,76.851,23.871,77.5z"/>
			<path fill="#DB9A8F" d="M28.025,70.293c1.162,0.742,1.502,2.239,0.849,3.398c-0.672,1.148-2.193,1.53-3.396,0.853
				c-1.204-0.677-1.603-2.21-0.891-3.424C25.28,69.894,26.86,69.549,28.025,70.293z"/>
			<path fill="#DB9A8F" d="M32.743,63.441c1.101,0.832,1.362,2.38,0.581,3.457c-0.796,1.066-2.324,1.34-3.459,0.577
				c-1.156-0.777-1.453-2.35-0.612-3.479C30.079,62.858,31.641,62.609,32.743,63.441z"/>
		</g>
		<g>
			<path fill="#DB9A8F" d="M38.143,56.821c1.031,0.917,1.154,2.47,0.272,3.467c-0.834,1.037-2.382,1.184-3.462,0.324
				c-1.08-0.859-1.245-2.448-0.362-3.542C35.52,56.014,37.111,55.903,38.143,56.821z"/>
			<path fill="#DB9A8F" d="M43.871,50.789c0.947,0.984,0.952,2.545,0.034,3.51c-0.927,0.955-2.499,0.965-3.508,0.024
				c-1.01-0.941-1.035-2.522-0.055-3.531C41.313,49.773,42.904,49.783,43.871,50.789z"/>
			<path fill="#DB9A8F" d="M50.068,45.238c0.877,1.065,0.767,2.628-0.248,3.49c-1.03,0.845-2.556,0.78-3.493-0.239
				c-0.931-1.013-0.875-2.638,0.211-3.532C47.61,44.046,49.191,44.172,50.068,45.238z"/>
			<path fill="#DB9A8F" d="M56.671,40.179c0.8,1.14,0.533,2.64-0.525,3.448c-1.054,0.813-2.6,0.592-3.452-0.493
				c-0.853-1.086-0.642-2.662,0.472-3.521C54.284,38.762,55.886,39.059,56.671,40.179z"/>
		</g>
		<g>
			<path fill="#DB9A8F" d="M63.822,35.502c0.695,1.18,0.354,2.726-0.773,3.433c-1.127,0.709-2.661,0.351-3.424-0.798
				c-0.765-1.15-0.42-2.689,0.77-3.438C61.585,33.952,63.115,34.303,63.822,35.502z"/>
			<path fill="#DB9A8F" d="M71.143,31.55c0.607,1.239,0.135,2.729-1.055,3.327c-1.194,0.589-2.654,0.19-3.335-1.028
				c-0.666-1.191-0.245-2.775,1.016-3.4C69.024,29.816,70.535,30.31,71.143,31.55z"/>
			<path fill="#DB9A8F" d="M78.731,28.142c0.512,1.288-0.093,2.688-1.301,3.25c-1.217,0.54-2.673-0.039-3.251-1.291
				c-0.579-1.254-0.007-2.732,1.279-3.302C76.734,26.207,78.223,26.864,78.731,28.142z"/>
			<path fill="#DB9A8F" d="M86.562,25.333c0.41,1.317-0.282,2.727-1.545,3.146c-1.27,0.402-2.67-0.271-3.146-1.551
				c-0.485-1.307,0.192-2.754,1.533-3.18C84.737,23.305,86.151,24.015,86.562,25.333z"/>
		</g>
		<g>
			<path fill="#DB9A8F" d="M94.806,23.096c0.307,1.351-0.503,2.663-1.796,2.981c-1.282,0.358-2.628-0.429-3.005-1.756
				c-0.377-1.328,0.415-2.711,1.769-3.087C93.139,20.896,94.502,21.754,94.806,23.096z"/>
			<path fill="#DB9A8F" d="M102.973,21.508c0.201,1.365-0.698,2.66-2.01,2.89c-1.312,0.229-2.598-0.682-2.872-2.034
				c-0.274-1.354,0.625-2.648,2.01-2.891C101.486,19.23,102.771,20.142,102.973,21.508z"/>
			<path fill="#DB9A8F" d="M111.243,20.602c0.098,1.376-0.9,2.573-2.229,2.672c-1.324,0.144-2.532-0.817-2.703-2.192
				c-0.17-1.365,0.82-2.633,2.218-2.784C109.93,18.193,111.145,19.225,111.243,20.602z"/>
			<path fill="#DB9A8F" d="M119.555,20.258c-0.006,1.38-1.09,2.527-2.422,2.56c-1.332,0.033-2.466-1.059-2.533-2.437
				c-0.067-1.379,1.018-2.526,2.422-2.561S119.561,18.877,119.555,20.258z"/>
		</g>
		<g>
			<path fill="#DB9A8F" d="M128.092,20.619c-0.112,1.375-1.279,2.411-2.607,2.311c-1.329-0.084-2.379-1.192-2.34-2.583
				c0.038-1.369,1.21-2.497,2.612-2.409C127.158,18.042,128.204,19.243,128.092,20.619z"/>
			<path fill="#DB9A8F" d="M136.359,21.547c-0.213,1.346-1.458,2.31-2.78,2.151c-1.322-0.165-2.277-1.412-2.135-2.785
				c0.143-1.374,1.389-2.346,2.783-2.172C135.623,18.91,136.577,20.166,136.359,21.547z"/>
			<path fill="#DB9A8F" d="M144.523,23.145c-0.319,1.343-1.63,2.193-2.929,1.899c-1.295-0.313-2.171-1.54-1.921-2.917
				c0.243-1.34,1.577-2.305,2.945-1.977C143.989,20.461,144.842,21.802,144.523,23.145z"/>
			<path fill="#DB9A8F" d="M152.548,25.333c-0.42,1.314-1.781,2.022-3.07,1.686c-1.283-0.357-2.039-1.73-1.689-3.065
				c0.35-1.336,1.731-2.113,3.085-1.735C152.234,22.576,152.97,24.018,152.548,25.333z"/>
		</g>
		<g>
			<path fill="#DB9A8F" d="M160.589,28.223c-0.523,1.277-1.954,1.923-3.196,1.443c-1.236-0.495-1.886-1.912-1.437-3.202
				c0.458-1.317,1.901-1.995,3.207-1.474C160.474,25.498,161.113,26.945,160.589,28.223z"/>
			<path fill="#DB9A8F" d="M168.169,31.651c-0.623,1.239-2.081,1.734-3.283,1.163c-1.217-0.539-1.756-2.002-1.204-3.267
				c0.553-1.266,2.042-1.829,3.328-1.258C168.28,28.892,168.786,30.423,168.169,31.651z"/>
			<path fill="#DB9A8F" d="M175.482,35.617c-0.708,1.172-2.23,1.607-3.388,0.951c-1.16-0.654-1.574-2.174-0.926-3.392
				c0.648-1.219,2.167-1.647,3.392-0.957C175.783,32.913,176.201,34.425,175.482,35.617z"/>
			<path fill="#DB9A8F" d="M182.439,40.179c-0.802,1.123-2.337,1.417-3.429,0.654c-1.085-0.771-1.429-2.245-0.68-3.424
				c0.731-1.151,2.326-1.535,3.474-0.722C182.957,37.492,183.241,39.055,182.439,40.179z"/>
		</g>
		<g>
			<path fill="#DB9A8F" d="M189.213,45.384c-0.901,1.071-2.403,1.179-3.472,0.385c-1.054-0.813-1.236-2.366-0.407-3.469
				c0.831-1.104,2.406-1.302,3.519-0.443C189.982,42.697,190.089,44.342,189.213,45.384z"/>
			<path fill="#DB9A8F" d="M195.404,50.942c-0.967,0.984-2.54,1.046-3.512,0.136c-0.974-0.908-1.014-2.493-0.114-3.515
				c0.925-1.05,2.491-1.104,3.52-0.145C196.324,48.379,196.372,49.958,195.404,50.942z"/>
			<path fill="#DB9A8F" d="M201.116,56.989c-1.041,0.906-2.599,0.833-3.479-0.166c-0.905-0.976-0.871-2.514,0.124-3.481
				c0.985-0.958,2.599-0.936,3.555,0.096C202.247,54.493,202.158,56.083,201.116,56.989z"/>
			<path fill="#DB9A8F" d="M206.367,63.441c-1.104,0.819-2.63,0.609-3.479-0.417c-0.832-1.039-0.645-2.596,0.417-3.478
				c1.062-0.883,2.636-0.708,3.515,0.39C207.714,61.021,207.48,62.615,206.367,63.441z"/>
		</g>
		<g>
			<path fill="#DB9A8F" d="M211.208,70.481c-1.171,0.73-2.711,0.42-3.438-0.694c-0.716-1.122-0.413-2.653,0.704-3.438
				c1.142-0.803,2.706-0.509,3.464,0.677C212.707,68.203,212.38,69.75,211.208,70.481z"/>
			<path fill="#DB9A8F" d="M215.344,77.699c-1.227,0.635-2.715,0.192-3.335-0.984c-0.673-1.147-0.254-2.647,0.933-3.35
				c1.188-0.703,2.729-0.289,3.439,0.926C217.039,75.536,216.569,77.064,215.344,77.699z"/>
			<path fill="#DB9A8F" d="M218.926,85.207c-1.257,0.528-2.729-0.021-3.292-1.226c-0.557-1.208-0.001-2.679,1.238-3.285
				c1.241-0.606,2.724-0.062,3.313,1.217C220.78,83.189,220.214,84.665,218.926,85.207z"/>
			<path fill="#DB9A8F" d="M221.86,92.992c-1.311,0.431-2.726-0.238-3.158-1.495c-0.408-1.267,0.181-2.657,1.479-3.167
				c1.271-0.5,2.789,0.131,3.223,1.471C223.863,91.131,223.171,92.56,221.86,92.992z"/>
		</g>
		<g>
			<path fill="#DB9A8F" d="M224.228,101.199c-1.358,0.326-2.64-0.476-3.017-1.751c-0.37-1.277,0.403-2.635,1.724-3.032
				c1.322-0.397,2.712,0.376,3.103,1.729C226.434,99.496,225.554,100.882,224.228,101.199z"/>
			<path fill="#DB9A8F" d="M225.893,109.351c-1.363,0.213-2.663-0.675-2.901-1.983c-0.242-1.308,0.672-2.605,2.005-2.892
				c1.366-0.293,2.654,0.597,2.91,1.981C228.16,107.842,227.257,109.138,225.893,109.351z"/>
			<path fill="#DB9A8F" d="M226.858,117.613c-1.376,0.103-2.575-0.888-2.677-2.214c-0.169-1.319,0.8-2.534,2.169-2.715
				c1.368-0.18,2.626,0.805,2.804,2.202C229.263,116.288,228.235,117.509,226.858,117.613z"/>
			<path fill="#DB9A8F" d="M227.221,125.924c-1.38-0.006-2.528-1.089-2.562-2.418c-0.035-1.33,1.056-2.465,2.435-2.536
				c1.379-0.071,2.527,1.012,2.563,2.418C229.693,124.794,228.602,125.93,227.221,125.924z"/>
		</g>
	</g>
</g>
<g>
	<g>
		<circle fill="none" cx="110.976" cy="110.991" r="110.333"/>
		<g>
			<path d="M221.177,116.189c-0.38-0.018-0.68-0.338-0.671-0.715c0.01-0.377,0.326-0.672,0.706-0.66
				c0.381,0.013,0.681,0.333,0.671,0.715C221.873,115.912,221.557,116.208,221.177,116.189z"/>
			<path d="M220.561,123.672c-0.377-0.044-0.646-0.382-0.598-0.756c0.047-0.374,0.393-0.646,0.771-0.608
				c0.379,0.039,0.647,0.377,0.599,0.756C221.285,123.443,220.939,123.715,220.561,123.672z"/>
			<path d="M219.447,131.097c-0.374-0.069-0.623-0.426-0.557-0.797c0.066-0.371,0.424-0.62,0.799-0.557
				c0.376,0.064,0.625,0.421,0.558,0.798S219.821,131.166,219.447,131.097z"/>
			<path d="M217.864,138.436c-0.368-0.095-0.598-0.469-0.514-0.836c0.085-0.367,0.454-0.593,0.823-0.503
				c0.371,0.089,0.601,0.464,0.515,0.836C218.602,138.306,218.233,138.531,217.864,138.436z"/>
		</g>
		<g>
			<path d="M216.45,143.44c-0.363-0.112-0.574-0.497-0.471-0.86s0.482-0.57,0.847-0.463c0.366,0.107,0.577,0.492,0.473,0.86
				C217.193,143.345,216.814,143.553,216.45,143.44z"/>
			<path d="M213.981,150.53c-0.355-0.137-0.53-0.532-0.392-0.883c0.138-0.351,0.54-0.528,0.896-0.396
				c0.357,0.131,0.533,0.527,0.393,0.883C214.738,150.49,214.336,150.667,213.981,150.53z"/>
			<path d="M211.052,157.444c-0.345-0.161-0.498-0.569-0.343-0.913c0.155-0.343,0.563-0.496,0.909-0.34
				c0.348,0.156,0.501,0.565,0.344,0.914S211.397,157.605,211.052,157.444z"/>
			<path d="M207.667,164.145c-0.333-0.184-0.449-0.597-0.264-0.925c0.172-0.336,0.583-0.462,0.919-0.284
				c0.336,0.179,0.467,0.601,0.292,0.941C208.427,164.21,208,164.329,207.667,164.145z"/>
		</g>
		<g>
			<path d="M205.054,168.64c-0.327-0.201-0.415-0.614-0.225-0.94c0.188-0.327,0.605-0.434,0.932-0.239
				c0.328,0.195,0.438,0.622,0.247,0.953C205.815,168.745,205.375,168.838,205.054,168.64z"/>
			<path d="M200.893,174.89c-0.309-0.221-0.383-0.649-0.165-0.957c0.218-0.307,0.649-0.381,0.961-0.165
				c0.313,0.217,0.388,0.645,0.166,0.957C201.634,175.037,201.203,175.111,200.893,174.89z"/>
			<path d="M196.352,180.869c-0.293-0.241-0.343-0.677-0.11-0.974s0.663-0.345,0.96-0.108c0.298,0.238,0.348,0.674,0.111,0.975
				S196.646,181.111,196.352,180.869z"/>
			<path d="M191.384,186.499c-0.277-0.26-0.291-0.693-0.03-0.966s0.699-0.286,0.979-0.029c0.281,0.257,0.295,0.689,0.031,0.966
				C192.1,186.747,191.662,186.76,191.384,186.499z"/>
		</g>
		<g>
			<path d="M187.737,190.204c-0.264-0.273-0.257-0.706,0.016-0.966c0.272-0.26,0.711-0.252,0.979,0.017
				c0.269,0.27,0.262,0.703-0.015,0.967C188.441,190.485,188.002,190.478,187.737,190.204z"/>
			<path d="M182.175,195.247c-0.245-0.291-0.213-0.726,0.072-0.973c0.285-0.247,0.718-0.214,0.967,0.073
				c0.25,0.288,0.218,0.724-0.071,0.974C182.854,195.571,182.421,195.538,182.175,195.247z"/>
			<path d="M176.286,199.904c-0.225-0.306-0.159-0.732,0.149-0.951c0.306-0.219,0.726-0.172,0.957,0.134
				c0.228,0.301,0.177,0.749-0.134,0.971C176.947,200.28,176.511,200.211,176.286,199.904z"/>
			<path d="M170.083,204.134c-0.203-0.321-0.111-0.746,0.206-0.95c0.317-0.203,0.744-0.11,0.952,0.208
				c0.208,0.319,0.117,0.744-0.206,0.951C170.714,204.549,170.288,204.456,170.083,204.134z"/>
		</g>
		<g>
			<path d="M165.631,206.819c-0.188-0.33-0.076-0.75,0.251-0.938c0.327-0.188,0.749-0.075,0.941,0.252
				c0.194,0.329,0.082,0.749-0.25,0.939C166.242,207.264,165.82,207.15,165.631,206.819z"/>
			<path d="M159.002,210.344c-0.165-0.342-0.027-0.759,0.308-0.931s0.746-0.035,0.916,0.304c0.171,0.341,0.033,0.758-0.308,0.933
				S159.168,210.687,159.002,210.344z"/>
			<path d="M152.126,213.36c-0.142-0.353,0.028-0.751,0.379-0.889s0.754,0.034,0.9,0.385c0.147,0.352-0.022,0.75-0.378,0.89
				C152.672,213.887,152.269,213.714,152.126,213.36z"/>
			<path d="M145.071,215.927c-0.117-0.361,0.078-0.753,0.435-0.874c0.357-0.121,0.746,0.073,0.868,0.433
				c0.123,0.361-0.072,0.752-0.434,0.875C145.578,216.484,145.188,216.29,145.071,215.927z"/>
		</g>
		<g>
			<path d="M140.089,217.412c-0.1-0.367,0.113-0.748,0.476-0.851s0.742,0.11,0.847,0.475c0.105,0.366-0.108,0.748-0.476,0.852
				S140.189,217.78,140.089,217.412z"/>
			<path d="M132.787,219.157c-0.075-0.378,0.169-0.716,0.535-0.808c0.367-0.085,0.729,0.148,0.81,0.52
				c0.08,0.373-0.158,0.744-0.53,0.83C133.229,219.792,132.86,219.525,132.787,219.157z"/>
			<path d="M125.375,220.357c-0.049-0.377,0.215-0.722,0.589-0.769s0.721,0.219,0.775,0.595c0.054,0.377-0.209,0.722-0.589,0.77
				C125.771,221.002,125.424,220.735,125.375,220.357z"/>
			<path d="M117.903,221.084c-0.023-0.379,0.263-0.71,0.639-0.739c0.376-0.029,0.704,0.256,0.732,0.635
				c0.029,0.38-0.257,0.711-0.639,0.74C118.254,221.75,117.926,221.465,117.903,221.084z"/>
		</g>
		<g>
			<path d="M112.707,221.279c-0.005-0.38,0.296-0.696,0.673-0.706c0.377-0.01,0.691,0.291,0.702,0.671
				c0.011,0.381-0.29,0.697-0.672,0.707C113.027,221.961,112.713,221.66,112.707,221.279z"/>
			<path d="M105.2,221.172c0.02-0.375,0.342-0.674,0.719-0.666c0.377,0.009,0.67,0.325,0.656,0.705
				c-0.015,0.381-0.336,0.681-0.719,0.671C105.473,221.875,105.18,221.558,105.2,221.172z"/>
			<path d="M97.721,220.503c0.045-0.377,0.386-0.645,0.76-0.598c0.374,0.048,0.645,0.393,0.604,0.771
				c-0.04,0.379-0.38,0.646-0.76,0.598C97.946,221.227,97.675,220.881,97.721,220.503z"/>
			<path d="M90.301,219.36c0.071-0.373,0.43-0.623,0.801-0.556s0.619,0.424,0.553,0.798c-0.066,0.375-0.424,0.625-0.801,0.558
				C90.477,220.092,90.229,219.735,90.301,219.36z"/>
		</g>
		<g>
			<path d="M85.218,218.269c0.089-0.369,0.458-0.601,0.826-0.516c0.368,0.085,0.598,0.455,0.514,0.825
				c-0.083,0.372-0.454,0.603-0.826,0.517C85.359,219.009,85.129,218.639,85.218,218.269z"/>
			<path d="M77.974,216.298c0.113-0.359,0.496-0.559,0.86-0.461c0.363,0.103,0.569,0.482,0.46,0.846
				c-0.109,0.365-0.495,0.576-0.863,0.471C78.061,217.055,77.858,216.665,77.974,216.298z"/>
			<path d="M70.898,213.784c0.138-0.354,0.535-0.529,0.886-0.391c0.351,0.139,0.527,0.54,0.394,0.896
				c-0.134,0.357-0.53,0.532-0.886,0.392S70.759,214.139,70.898,213.784z"/>
			<path d="M63.996,210.83c0.163-0.344,0.573-0.497,0.917-0.341c0.343,0.155,0.494,0.562,0.337,0.908
				c-0.158,0.347-0.568,0.5-0.917,0.342S63.833,211.174,63.996,210.83z"/>
		</g>
		<g>
			<path d="M59.348,208.5c0.178-0.335,0.595-0.469,0.931-0.297s0.467,0.586,0.293,0.924c-0.174,0.339-0.591,0.472-0.932,0.298
				C59.3,209.25,59.169,208.836,59.348,208.5z"/>
			<path d="M52.84,204.757c0.201-0.323,0.622-0.419,0.939-0.216c0.314,0.208,0.422,0.622,0.226,0.947
				c-0.197,0.327-0.627,0.44-0.946,0.228C52.736,205.51,52.639,205.081,52.84,204.757z"/>
			<circle cx="47.166" cy="200.971" r="0.688"/>
			<path d="M40.649,196.003c0.24-0.29,0.671-0.33,0.971-0.101c0.296,0.233,0.343,0.662,0.105,0.958
				c-0.239,0.296-0.677,0.345-0.978,0.109C40.443,196.736,40.403,196.299,40.649,196.003z"/>
		</g>
		<g>
			<path d="M36.721,192.595c0.253-0.277,0.692-0.305,0.977-0.059c0.285,0.247,0.312,0.678,0.06,0.962
				c-0.252,0.285-0.692,0.313-0.981,0.063C36.487,193.311,36.461,192.879,36.721,192.595z"/>
			<path d="M31.364,187.334c0.274-0.263,0.708-0.255,0.969,0.018c0.26,0.273,0.251,0.71-0.02,0.978
				c-0.271,0.267-0.705,0.259-0.969-0.018S31.088,187.598,31.364,187.334z"/>
			<path d="M26.341,181.753c0.292-0.244,0.729-0.21,0.975,0.075c0.247,0.285,0.213,0.717-0.075,0.965
				c-0.289,0.249-0.726,0.215-0.977-0.074C26.015,182.43,26.049,181.998,26.341,181.753z"/>
			<path d="M21.728,175.831c0.308-0.223,0.734-0.155,0.953,0.152c0.219,0.307,0.149,0.741-0.155,0.969
				c-0.305,0.229-0.732,0.161-0.954-0.151C21.35,176.488,21.419,176.055,21.728,175.831z"/>
		</g>
		<g>
			<path d="M18.767,171.557c0.318-0.208,0.741-0.121,0.944,0.197c0.204,0.317,0.111,0.749-0.2,0.96
				c-0.319,0.216-0.739,0.126-0.947-0.195C18.358,172.196,18.449,171.766,18.767,171.557z"/>
			<path d="M14.859,165.146c0.331-0.187,0.752-0.073,0.94,0.254c0.188,0.327,0.074,0.747-0.254,0.938
				c-0.329,0.192-0.75,0.078-0.941-0.253C14.413,165.753,14.527,165.333,14.859,165.146z"/>
			<path d="M11.375,158.496c0.346-0.165,0.739-0.014,0.917,0.319c0.172,0.335,0.035,0.744-0.306,0.913
				c-0.342,0.169-0.76,0.03-0.934-0.311C10.871,159.079,11.034,158.658,11.375,158.496z"/>
			<path d="M8.394,151.604c0.354-0.14,0.752,0.031,0.891,0.382c0.138,0.351-0.035,0.752-0.386,0.897
				c-0.352,0.146-0.751-0.025-0.892-0.381C7.866,152.146,8.04,151.745,8.394,151.604z"/>
		</g>
		<g>
			<path d="M6.594,146.728c0.359-0.123,0.75,0.067,0.87,0.424s-0.072,0.75-0.43,0.878c-0.359,0.128-0.749-0.062-0.871-0.424
				C6.041,147.244,6.233,146.851,6.594,146.728z"/>
			<path d="M4.396,139.549c0.367-0.098,0.749,0.117,0.852,0.479c0.103,0.362-0.11,0.74-0.476,0.843
				c-0.367,0.104-0.749-0.111-0.853-0.479C3.814,140.024,4.028,139.646,4.396,139.549z"/>
			<path d="M2.708,132.233c0.373-0.072,0.729,0.17,0.795,0.541c0.059,0.373-0.161,0.731-0.536,0.81
				c-0.37,0.077-0.755-0.159-0.815-0.537C2.085,132.669,2.333,132.306,2.708,132.233z"/>
			<circle cx="1.623" cy="125.5" r="0.688"/>
		</g>
		<g>
			<path d="M1.013,119.645c0.379-0.029,0.709,0.252,0.738,0.628c0.028,0.375-0.256,0.708-0.634,0.743
				c-0.379,0.035-0.71-0.247-0.739-0.628C0.349,120.007,0.633,119.674,1.013,119.645z"/>
			<path d="M0.672,112.145c0.38-0.003,0.696,0.299,0.706,0.676c0.01,0.377-0.291,0.69-0.671,0.699
				c-0.381,0.009-0.697-0.293-0.707-0.676C-0.009,112.461,0.292,112.148,0.672,112.145z"/>
			<path d="M0.838,104.639c0.38,0.022,0.664,0.345,0.636,0.721c-0.01,0.377-0.326,0.669-0.705,0.652
				c-0.381-0.016-0.681-0.34-0.671-0.722C0.125,104.908,0.458,104.617,0.838,104.639z"/>
			<path d="M1.536,97.164c0.377,0.047,0.645,0.389,0.597,0.763s-0.393,0.643-0.771,0.601c-0.378-0.042-0.646-0.384-0.598-0.764
				C0.813,97.385,1.158,97.116,1.536,97.164z"/>
		</g>
		<g>
			<path d="M2.301,92.021c0.375,0.065,0.625,0.419,0.558,0.791c-0.066,0.371-0.424,0.623-0.8,0.563
				c-0.376-0.06-0.626-0.414-0.559-0.791C1.567,92.208,1.926,91.956,2.301,92.021z"/>
			<path d="M3.828,84.67c0.369,0.091,0.6,0.462,0.515,0.83c-0.084,0.368-0.454,0.596-0.824,0.511
				c-0.371-0.085-0.602-0.457-0.516-0.83C3.088,84.808,3.458,84.58,3.828,84.67z"/>
			<path d="M5.854,77.441c0.362,0.116,0.558,0.499,0.437,0.856c-0.111,0.36-0.484,0.566-0.849,0.455
				c-0.363-0.11-0.58-0.5-0.466-0.866C5.098,77.525,5.491,77.325,5.854,77.441z"/>
			<circle cx="8.142" cy="71.016" r="0.688"/>
		</g>
		<g>
			<path d="M10.423,65.59c0.346,0.157,0.501,0.563,0.346,0.906c-0.155,0.344-0.564,0.499-0.912,0.347
				c-0.35-0.152-0.504-0.558-0.347-0.907C9.667,65.588,10.076,65.433,10.423,65.59z"/>
			<path d="M13.729,58.849c0.334,0.18,0.467,0.599,0.295,0.934s-0.584,0.465-0.922,0.29c-0.338-0.176-0.47-0.594-0.296-0.935
				S13.394,58.668,13.729,58.849z"/>
			<path d="M17.521,52.369c0.321,0.203,0.417,0.624,0.214,0.941s-0.632,0.414-0.956,0.216c-0.326-0.198-0.421-0.62-0.215-0.942
				C16.77,52.262,17.198,52.166,17.521,52.369z"/>
			<circle cx="21.33" cy="46.711" r="0.688"/>
		</g>
		<g>
			<circle cx="24.461" cy="42.561" r="0.688"/>
			<path d="M29.77,36.318c0.279,0.258,0.294,0.688,0.036,0.961c-0.247,0.285-0.677,0.31-0.96,0.057
				c-0.284-0.254-0.311-0.694-0.06-0.983C29.048,36.075,29.49,36.061,29.77,36.318z"/>
			<circle cx="34.552" cy="31.455" r="0.688"/>
			<path d="M40.649,25.978c0.242,0.293,0.208,0.731-0.078,0.978c-0.285,0.247-0.716,0.212-0.962-0.078
				c-0.247-0.29-0.213-0.728,0.077-0.979C39.976,25.649,40.407,25.685,40.649,25.978z"/>
		</g>
		<g>
			<path d="M44.732,22.758c0.228,0.304,0.173,0.74-0.124,0.973s-0.726,0.178-0.958-0.123c-0.233-0.301-0.178-0.737,0.123-0.973
				C44.075,22.398,44.503,22.453,44.732,22.758z"/>
			<path d="M50.896,18.471c0.207,0.318,0.118,0.742-0.2,0.945c-0.317,0.204-0.747,0.112-0.958-0.203
				c-0.212-0.317-0.123-0.74,0.199-0.947C50.259,18.06,50.688,18.151,50.896,18.471z"/>
			<path d="M57.321,14.586c0.185,0.332,0.07,0.754-0.257,0.942c-0.327,0.188-0.746,0.073-0.935-0.257
				c-0.19-0.33-0.075-0.752,0.256-0.943C56.717,14.138,57.136,14.253,57.321,14.586z"/>
			<path d="M63.997,11.151c0.162,0.344,0.015,0.749-0.329,0.904c-0.346,0.15-0.746,0.028-0.915-0.318
				c-0.165-0.337-0.031-0.772,0.32-0.924C63.421,10.655,63.834,10.807,63.997,11.151z"/>
		</g>
		<g>
			<path d="M68.75,9.044c0.145,0.351-0.021,0.748-0.372,0.886c-0.347,0.147-0.745-0.004-0.896-0.355
				c-0.15-0.348,0.008-0.765,0.36-0.915C68.198,8.521,68.604,8.692,68.75,9.044z"/>
			<path d="M75.786,6.424c0.121,0.36-0.071,0.75-0.428,0.872C75,7.416,74.609,7.223,74.483,6.864
				c-0.126-0.359,0.065-0.75,0.427-0.873C75.272,5.869,75.665,6.063,75.786,6.424z"/>
			<path d="M82.973,4.253c0.096,0.368-0.12,0.75-0.483,0.853s-0.739-0.111-0.84-0.477c-0.102-0.368,0.115-0.75,0.483-0.854
				C82.501,3.67,82.877,3.884,82.973,4.253z"/>
			<path d="M90.301,2.621c0.07,0.373-0.173,0.73-0.544,0.796s-0.733-0.183-0.81-0.555c-0.076-0.374,0.168-0.73,0.544-0.798
				C89.868,1.998,90.231,2.246,90.301,2.621z"/>
		</g>
		<g>
			<path d="M95.43,1.77c0.053,0.376-0.208,0.72-0.582,0.768c-0.375,0.046-0.725-0.218-0.782-0.589
				c-0.059-0.382,0.201-0.728,0.581-0.774C95.027,1.125,95.377,1.392,95.43,1.77z"/>
			<path d="M102.896,0.984c0.027,0.379-0.256,0.71-0.631,0.739c-0.376,0.028-0.708-0.256-0.74-0.634
				c-0.033-0.38,0.25-0.711,0.631-0.74C102.539,0.319,102.87,0.604,102.896,0.984z"/>
			<path d="M110.398,0.672c0.001,0.38-0.303,0.696-0.68,0.706c-0.377,0.01-0.688-0.291-0.695-0.671
				c-0.007-0.381,0.297-0.697,0.68-0.707C110.086-0.009,110.397,0.291,110.398,0.672z"/>
			<path d="M117.903,0.896c-0.024,0.379-0.348,0.664-0.724,0.635c-0.375-0.031-0.666-0.359-0.647-0.733
				c0.019-0.385,0.343-0.673,0.725-0.643C117.637,0.185,117.927,0.516,117.903,0.896z"/>
		</g>
		<g>
			<path d="M123.084,1.333c-0.042,0.378-0.379,0.646-0.752,0.598c-0.375-0.043-0.651-0.363-0.615-0.744
				c0.036-0.376,0.375-0.67,0.755-0.626C122.852,0.608,123.126,0.954,123.084,1.333z"/>
			<path d="M130.513,2.417c-0.067,0.374-0.422,0.624-0.793,0.558s-0.622-0.424-0.56-0.799c0.062-0.376,0.417-0.626,0.794-0.559
				S130.581,2.042,130.513,2.417z"/>
			<path d="M137.858,3.972c-0.093,0.368-0.466,0.599-0.833,0.514s-0.594-0.454-0.507-0.824c0.087-0.371,0.46-0.601,0.833-0.515
				C137.725,3.233,137.952,3.603,137.858,3.972z"/>
			<path d="M145.072,6.054c-0.118,0.361-0.503,0.557-0.86,0.436c-0.357-0.12-0.555-0.514-0.443-0.875
				c0.113-0.366,0.498-0.56,0.86-0.438C144.992,5.299,145.19,5.691,145.072,6.054z"/>
		</g>
		<g>
			<path d="M149.978,7.773c-0.135,0.355-0.528,0.532-0.879,0.394c-0.349-0.144-0.533-0.533-0.404-0.887
				c0.131-0.361,0.529-0.55,0.883-0.405C149.934,7.015,150.113,7.417,149.978,7.773z"/>
			<path d="M156.902,10.676c-0.159,0.345-0.566,0.5-0.91,0.344c-0.344-0.155-0.498-0.563-0.344-0.911
				c0.154-0.349,0.562-0.503,0.91-0.345S157.062,10.33,156.902,10.676z"/>
			<path d="M163.629,14.011c-0.18,0.329-0.6,0.462-0.936,0.291s-0.464-0.584-0.287-0.92c0.177-0.337,0.597-0.469,0.938-0.294
				C163.685,13.261,163.814,13.672,163.629,14.011z"/>
			<path d="M170.083,17.847c-0.204,0.32-0.627,0.416-0.945,0.212c-0.317-0.204-0.413-0.631-0.213-0.955
				c0.2-0.324,0.623-0.419,0.945-0.213C170.193,17.099,170.288,17.526,170.083,17.847z"/>
		</g>
		<g>
			<path d="M174.404,20.739c-0.219,0.311-0.646,0.385-0.953,0.167s-0.382-0.65-0.167-0.964c0.215-0.314,0.642-0.39,0.954-0.168
				C174.549,19.996,174.624,20.428,174.404,20.739z"/>
			<path d="M180.4,25.257c-0.24,0.295-0.675,0.346-0.971,0.113s-0.346-0.664-0.11-0.962c0.236-0.299,0.671-0.35,0.972-0.113
				S180.64,24.962,180.4,25.257z"/>
			<path d="M186.066,30.184c-0.259,0.278-0.691,0.293-0.963,0.033c-0.272-0.262-0.288-0.699-0.036-0.977
				c0.258-0.286,0.692-0.303,0.968-0.038C186.311,29.465,186.326,29.905,186.066,30.184z"/>
			<circle cx="190.91" cy="34.985" r="0.688"/>
		</g>
		<g>
			<path d="M194.854,39.354c-0.289,0.247-0.724,0.216-0.971-0.069c-0.247-0.285-0.215-0.72,0.07-0.97
				c0.286-0.252,0.721-0.221,0.972,0.068S195.144,39.107,194.854,39.354z"/>
			<path d="M199.554,45.209c-0.305,0.227-0.726,0.159-0.964-0.134c-0.233-0.296-0.177-0.724,0.125-0.955
				c0.303-0.231,0.739-0.175,0.976,0.125C199.932,44.542,199.86,44.982,199.554,45.209z"/>
			<path d="M203.807,51.397c-0.32,0.205-0.744,0.114-0.948-0.203c-0.203-0.317-0.111-0.745,0.206-0.955
				c0.318-0.211,0.742-0.12,0.949,0.202C204.22,50.763,204.128,51.191,203.807,51.397z"/>
			<path d="M207.667,57.836c-0.333,0.183-0.756,0.066-0.944-0.26s-0.072-0.744,0.258-0.932c0.331-0.188,0.754-0.072,0.945,0.26
				C208.117,57.235,208.001,57.653,207.667,57.836z"/>
		</g>
		<g>
			<path d="M210.066,62.45c-0.341,0.167-0.758,0.031-0.93-0.305s-0.036-0.747,0.303-0.919c0.34-0.172,0.756-0.036,0.931,0.305
				C210.544,61.871,210.408,62.282,210.066,62.45z"/>
			<path d="M213.133,69.302c-0.352,0.144-0.75-0.024-0.888-0.375c-0.139-0.351,0.035-0.756,0.382-0.904
				c0.353-0.15,0.749,0.019,0.89,0.375C213.658,68.753,213.486,69.158,213.133,69.302z"/>
			<path d="M215.727,76.348c-0.361,0.119-0.751-0.074-0.873-0.431c-0.121-0.357,0.073-0.747,0.432-0.872
				c0.36-0.125,0.751,0.069,0.874,0.431S216.089,76.229,215.727,76.348z"/>
			<path d="M217.864,83.545c-0.364,0.093-0.742-0.126-0.848-0.488c-0.103-0.363,0.111-0.737,0.478-0.836
				c0.368-0.1,0.75,0.118,0.855,0.486C218.456,83.075,218.238,83.45,217.864,83.545z"/>
		</g>
		<g>
			<path d="M219.034,88.612c-0.373,0.076-0.743-0.16-0.828-0.527s0.147-0.731,0.519-0.813c0.372-0.082,0.743,0.154,0.829,0.526
				C219.639,88.172,219.407,88.536,219.034,88.612z"/>
			<path d="M220.269,96.018c-0.376,0.05-0.721-0.211-0.768-0.585s0.219-0.723,0.595-0.779c0.377-0.056,0.721,0.206,0.77,0.585
				S220.647,95.967,220.269,96.018z"/>
			<path d="M221.026,103.488c-0.379,0.025-0.71-0.259-0.739-0.635c-0.029-0.376,0.255-0.706,0.634-0.736
				c0.38-0.031,0.711,0.253,0.74,0.635C221.69,103.133,221.406,103.463,221.026,103.488z"/>
			<path d="M221.308,110.991c-0.38,0-0.696-0.306-0.706-0.683c-0.009-0.377,0.292-0.687,0.671-0.692
				c0.381-0.005,0.697,0.301,0.707,0.683C221.99,110.682,221.689,110.991,221.308,110.991z"/>
		</g>
	</g>
</g>
</svg>
